<svg xmlns="http://www.w3.org/2000/svg" xmlns:xlink="http://www.w3.org/1999/xlink" width="1600" height="1200" viewBox="0 0 1600 1200">
  <defs>
    <clipPath id="clip-path">
      <rect id="Background" width="1600" height="1199" fill="#e6e9f3"/>
    </clipPath>
    <clipPath id="clip-Waimakariri">
      <rect width="1600" height="1200"/>
    </clipPath>
  </defs>
  <g id="Waimakariri" clip-path="url(#clip-Waimakariri)">
    <rect width="1600" height="1200" fill="#e6e9f3"/>
    <g id="Component_3_1" data-name="Component 3 – 1" transform="translate(0 1)">
      <g id="Mask_Group_7" data-name="Mask Group 7" clip-path="url(#clip-path)">
        <g id="Waimakariri-2" data-name="Waimakariri" transform="translate(-460.685 -317.346)">
          <path id="Shape" d="M309.831,706.737c218.308,13.2,376.547-156.635,395.452-394.261S528.479-114.5,310.153-81.46-68.892,86.835-85.3,312.8,91.522,693.541,309.831,706.737Z" transform="matrix(0.777, 0.629, -0.629, 0.777, 1245.008, 459.113)" fill="#eff3f0"/>
          <path id="Shape-2" data-name="Shape" d="M138.621,334.589c97.666-17.733,184.076-82.255,184.118-183.63S240.415-32.562,138.771-32.52-29.205,60.231-45.347,151.109,40.955,352.322,138.621,334.589Z" transform="matrix(0.777, 0.629, -0.629, 0.777, 1911.7, 86.61)" fill="#eff3f0"/>
          <path id="Shape-3" data-name="Shape" d="M194.284-44.359c139.333-.057,229.908,111.667,252.182,252.087s-.124,304.414-.179,438.048S342.158,898.01,193.9,898.07-73.223,779.887-58.281,645.983s-14.768-293.516.179-438.048S54.951-44.3,194.284-44.359Z" transform="matrix(0.777, 0.629, -0.629, 0.777, 1951.613, 881.986)" fill="#eff3f0"/>
          <path id="Shape-4" data-name="Shape" d="M159.608,343.063c111.1-.045,192.3-86.143,192.342-192.308S257.821-54.564,159.765-41.4-47.326,34.854-32.577,150.911,48.505,343.108,159.608,343.063Z" transform="matrix(0.777, 0.629, -0.629, 0.777, 368.031, 106.187)" fill="#e0436b"/>
          <path id="Shape-5" data-name="Shape" d="M33.241,71.495C56.382,71.485,73.3,53.543,73.3,31.42S53.7-11.367,33.274-8.623-9.862,7.267-6.79,31.452,10.1,71.5,33.241,71.495Z" transform="matrix(0.777, 0.629, -0.629, 0.777, 571.62, 492.863)" fill="#e0436b"/>
          <path id="Shape-6" data-name="Shape" d="M28.564,46.25c11.074.678,19.1-7.929,20.045-19.978S39.625,4.614,28.551,6.282,9.329,14.8,8.5,26.259,17.489,45.573,28.564,46.25Z" transform="translate(1134.575 1232.731) rotate(155.997)" fill="#e0436b"/>
          <path id="Shape-7" data-name="Shape" d="M15.109,32.5A17.933,17.933,0,0,0,33.32,14.282c0-10.056-8.912-19.449-18.2-18.2S-4.483,3.3-3.086,14.3,4.591,32.5,15.109,32.5Z" transform="matrix(0.777, 0.629, -0.629, 0.777, 1087.719, 628.767)" fill="#7252a4"/>
          <path id="Shape-8" data-name="Shape" d="M15.706,35.826c11.066.669,19.088-7.94,20.046-19.985S26.789-5.8,15.722-4.129-3.492,4.4-4.324,15.856,4.64,35.157,15.706,35.826Z" transform="matrix(0.777, 0.629, -0.629, 0.777, 1067.153, 1056.214)" fill="#f0c933"/>
          <path id="Shape-9" data-name="Shape" d="M15.706,35.826c11.066.669,19.088-7.94,20.046-19.985S26.789-5.8,15.722-4.129-3.492,4.4-4.324,15.856,4.64,35.157,15.706,35.826Z" transform="matrix(0.777, 0.629, -0.629, 0.777, 1903.156, 1027.914)" fill="#f0c933"/>
          <path id="Shape-10" data-name="Shape" d="M7.855,17.916c5.533.335,9.544-3.97,10.023-9.993S13.393-2.9,7.863-2.065s-9.61,4.269-10.026,10S2.318,17.582,7.855,17.916Z" transform="matrix(0.777, 0.629, -0.629, 0.777, 1092.972, 1025.295)" fill="#f0c933"/>
          <path id="Shape-11" data-name="Shape" d="M15.706,35.826c11.066.669,19.088-7.94,20.046-19.985S26.789-5.8,15.722-4.129-3.492,4.4-4.324,15.856,4.64,35.157,15.706,35.826Z" transform="matrix(0.777, 0.629, -0.629, 0.777, 657.832, 712.05)" fill="#453264"/>
          <path id="Shape-12" data-name="Shape" d="M15.706,35.826c11.066.669,19.088-7.94,20.046-19.985S26.789-5.8,15.722-4.129-3.492,4.4-4.324,15.856,4.64,35.157,15.706,35.826Z" transform="matrix(0.777, 0.629, -0.629, 0.777, 1805.394, 1171.24)" fill="#453264"/>
          <path id="Shape-13" data-name="Shape" d="M26.9,49.618c11.063.678,19.076-7.928,20.024-19.977S37.944,7.982,26.882,9.649s-19.2,8.52-20.025,19.977S15.833,48.94,26.9,49.618Z" transform="matrix(-0.454, 0.891, -0.891, -0.454, 1372.954, 835.942)" fill="#453264"/>
          <path id="Shape-14" data-name="Shape" d="M199.935,450.384c125.359-.051,234.773-112.122,250.821-250.321S346.923-64.247,200.139-50.053-50.625,62.076-50.681,200.268,74.576,450.435,199.935,450.384Z" transform="matrix(0.777, 0.629, -0.629, 0.777, 629.672, 1334.526)" fill="#0f90d1"/>
          <path id="Shape-15" data-name="Shape" d="M274.754,812.169C453.351,826.515,582.8,641.9,598.271,383.608S453.629-80.526,275.017-44.613-35.076,138.326-48.5,383.953,96.158,797.823,274.754,812.169Z" transform="matrix(0.777, 0.629, -0.629, 0.777, 487.265, 526.754)" fill="#c4c8d4"/>
          <path id="Shape-16" data-name="Shape" d="M22.583,54.665C38.505,51.77,52.593,41.229,52.6,24.67A29.964,29.964,0,0,0,22.608-5.3C6.038-5.292-4.776,9.851-7.408,24.695S6.661,57.561,22.583,54.665Z" transform="matrix(0.777, 0.629, -0.629, 0.777, 1861.596, 468.889)" fill="#eff3f0"/>
          <path id="Shape-17" data-name="Shape" d="M13.686,33.134c9.65-1.759,18.188-8.147,18.192-18.18A18.157,18.157,0,0,0,13.7-3.212C3.662-3.208-2.9,5.97-4.49,14.968S4.037,34.886,13.686,33.134Z" transform="matrix(0.777, 0.629, -0.629, 0.777, 1605.647, 332.085)" fill="#eff3f0"/>
          <path id="Shape-18" data-name="Shape" d="M146.57-33.017A183.846,183.846,0,0,1,330.538,150.919c-.041,101.626-11.964,221.136-.13,319.622S247.9,666.893,146.289,654.627-37.725,584.02-37.679,470.691s.085-208.261.13-319.622S44.926-32.976,146.57-33.017Z" transform="matrix(0.777, 0.629, -0.629, 0.777, 1344.733, -283)" fill="#6759ae"/>
        </g>
      </g>
    </g>
  </g>
</svg>
