<svg id="SvgjsSvg1001" width="288" height="288" xmlns="http://www.w3.org/2000/svg" version="1.1" xmlns:xlink="http://www.w3.org/1999/xlink" xmlns:svgjs="http://svgjs.com/svgjs"><defs id="SvgjsDefs1002"></defs><g id="SvgjsG1008" transform="matrix(0.9167,0,0,0.9167,12.418792181015021,11.780512492847436)"><svg xmlns="http://www.w3.org/2000/svg" width="288" height="288" version="1.0" viewBox="0 0 170 166"><g transform="matrix(.1 0 0 -.1 0 166)" fill="#ffffff" class="color000 svgShape"><path d="M824 1592 c-6 -4 -16 -29 -24 -57 -7 -27 -16 -53 -19 -57 -3 -3 -27-9 -53 -13 -37 -6 -48 -4 -48 6 0 8 -14 29 -31 47 -33 37 -54 38 -97 4 -19
-15 -21 -21 -12 -52 17 -58 12 -75 -26 -103 l-37 -26 -52 30 -52 29 -26 -20
c-39 -31 -43 -56 -13 -95 32 -41 32 -58 4 -97 -20 -30 -23 -30 -80 -24 -58 6
-59 5 -78 -27 -23 -36 -26 -67 -7 -67 6 -1 29 -16 50 -34 38 -32 39 -33 28
-74 -9 -33 -17 -43 -39 -48 -56 -12 -76 -21 -86 -37 -6 -9 -7 -19 -4 -22 7 -8
226 -7 238 0 5 3 11 24 15 48 11 71 45 174 66 198 10 12 19 26 19 31 0 16 117
125 161 149 97 54 137 64 259 64 163 -1 249 -35 355 -140 74 -73 122 -166 139
-267 l13 -73 118 2 c116 2 151 11 128 34 -6 6 -34 16 -64 22 -52 12 -53 13
-66 62 -14 55 -14 54 61 110 l27 20 -18 35 c-18 35 -18 35 -79 32 -59 -4 -61
-3 -87 32 -15 19 -27 39 -27 44 0 5 12 31 26 57 l27 47 -31 30 -30 30 -50 -27
c-55 -30 -79 -29 -121 4 -24 18 -24 21 -14 67 10 42 9 51 -5 66 -9 9 -29 20
-43 23 -23 6 -32 0 -65 -39 -39 -47 -60 -55 -106 -37 -17 6 -28 23 -37 53 -7
23 -18 49 -23 56 -11 13 -66 16 -84 4z" fill="#ffffff" class="color000 svgShape"></path><path d="M823 1081c-77-56-119-148-108-235 6-41 15-56 57-96 50-48 50-48 27-60-31-17-129-15-140 2-23 35 0 272 37 393 7 20 7 20-16 0-32-29-46-61-65-150-10-52-15-117-14-184 3-98 1-105-20-122-41-33-84-16-49 19 16 16 7 15-30-4-23-11-32-23-32-39 0-20 8-26 40-35 43-12 70-7 109 17 13 9 49 16 80 17 31 1 89 12 129 26l73 24 25-27c31-34 64-35 164-3 80 26 153 77 148 104-2 9-40 31-93 53-104 43-122 63-111 124 5 27 21 53 51 82 44 45 67 51 163 44 31-2 33 0 27 21-10 34-43 58-79 58-71 0-185-112-187-184-3-101 10-137 68-185 28-23 34-34 26-42-12-12-138-29-151-20-5 4-8 19-8 35 1 27-4 31-61 51-129 47-159 81-134 153 28 78 80 112 176 112 74 0 84 13 39 55-38 35-89 33-141-4zM1500 795c-10-11-10-19-2-27 15-15 44-2 40 19-4 23-22 27-38 8zM220 775c-12-14-11-18 0-25 18-11 42-1 38 18-4 22-23 25-38 7zM1430 702c-55-18-66-76-23-117 50-45 130-57 170-24 22 19 16 70-14 101-37 39-69 37-78-3-9-38 7-58 30-39 12 10 19 10 27 2 22-22-5-34-52-25-51 10-74 37-47 57 29 22 20 59-13 48zM236 675c-38-13-73-28-78-33-16-16 6-77 28-77 14 0 19 7 19 25 0 18 6 26 23 28 13 2 24-3 28-12 8-20 23-11 34 20 11 27 28 31 36 9 7-17 30-20 38-6 3 5 3 23 0 40-8 39-32 40-128 6zM305 549c-87-59-97-69-84-86 10-11 17-9 45 8 39 24 44 12 13-32-11-16-18-36-15-44 6-16 46-21 46-7 0 5 16 16 36 25 46 23 104 69 104 84 0 21-19 25-42 9-43-31-51-13-16 35 19 26 20 31 8 39-23 15-31 12-95-31zM1334 548c-4-6 4-21 20-33 33-26 21-40-20-25-34 13-54 6-54-19 0-21 128-121 155-121 17 0 21 25 5 35-5 3-14 14-20 25-9 17-6 18 38 17 66-3 61 15-23 80-72 55-89 61-101 41zM445 429c-59-30-95-128-59-163 22-22 70-20 105 5 36 25 37 43 4 65-30 20-64 12-45-11 13-16 6-35-15-35-34 0-24 48 19 82 25 21 56 23 56 4 0-22 24-38 38-24 18 18 14 36-13 63-25 26-56 31-90 14zM1226 433c-17-18 0-55 52-112 43-47 61-61 75-56 23 9 22 15-8 49-14 16-40 49-58 72-33 44-50 57-61 47zM1118 362c-16-9-28-20-28-24 0-20 83-178 94-178 19 0 35 21 29 37-5 13-2 13 16 3 17-9 26-9 37 1 13 10 11 17-16 44-17 18-30 42-30 57 0 31-35 78-58 78-9 0-29-8-44-18zm56-63c-8-13-24-1-24 18 0 13 3 13 15 3 8-7 12-16 9-21zM564 274c-37-77-44-98-33-105 23-14 27-11 55 44 15 28 33 64 41 79 8 16 13 38 11 50-7 46-28 27-74-68zM1010 323c-14-3-29-8-34-13-5-5 2-50 15-104 23-91 25-96 51-96 39 0 58 10 58 31 0 14-7 19-25 19-29 0-35 29-11 50 18 14 10 40-13 40-29 0-33 13-10 31 21 15 22 51 2 48-4-1-19-4-33-6zM659 225c-20-82-22-97-9-105 21-13 29-4 36 41 8 49 20 50 29 1 14-84 44-82 68 5 23 83 26 138 7 138-8 0-19-13-24-30-5-16-11-37-14-45-3-8-9 9-14 38-8 45-13 52-32 52-20 0-25-10-47-95zM862 302c-9-6-12-35-10-108l3-99 43-3c37-3 42-1 42 18 0 13-10 24-27 31l-28 10 28 21c33 24 35 45 5 50-32 5-34 26-3 38 36 14 30 44-10 48-17 1-36-2-43-6z" fill="#ffffff" class="color000 svgShape"></path></g></svg></g></svg>