<?xml version="1.0" standalone="no"?>
<!DOCTYPE svg PUBLIC "-//W3C//DTD SVG 20010904//EN"
 "http://www.w3.org/TR/2001/REC-SVG-20010904/DTD/svg10.dtd">
<svg version="1.0" xmlns="http://www.w3.org/2000/svg"
 width="170.000000pt" height="166.000000pt" viewBox="0 0 170.000000 166.000000"
 preserveAspectRatio="xMidYMid meet">
<metadata>
Created by potrace 1.10, written by Peter Selinger 2001-2011
</metadata>
<g transform="translate(0.000000,166.000000) scale(0.050000,-0.050000)"
fill="#f00946" stroke="none">
<path d="M1659 3187 c-19 -5 -43 -54 -60 -123 l-29 -114 -97 -19 c-85 -16
-100 -14 -117 17 -11 20 -44 63 -74 96 l-53 60 -76 -37 -77 -36 13 -122 13
-122 -79 -55 -79 -55 -82 52 c-102 64 -124 64 -189 -2 -65 -65 -65 -77 -3
-159 105 -137 32 -253 -155 -246 l-120 5 -40 -76 -39 -76 57 -47 c31 -26 73
-52 92 -59 83 -28 43 -249 -45 -249 -68 0 -180 -56 -180 -90 0 -27 33 -30 245
-26 l245 6 22 130 c87 528 469 850 1008 850 l270 0 158 -76 c295 -143 533
-452 565 -735 18 -158 16 -157 273 -145 286 14 343 81 97 114 l-96 12 -24 102
c-31 136 -34 127 67 191 160 101 101 245 -87 211 -86 -15 -111 -13 -130 10
-12 16 -39 46 -58 67 -47 53 -44 86 19 193 l53 92 -65 58 -65 58 -102 -59
-102 -59 -87 43 c-89 44 -106 111 -65 253 6 19 -19 43 -67 67 l-77 38 -58 -56
c-32 -31 -64 -72 -70 -93 -26 -81 -249 -24 -249 64 0 117 -84 179 -201 147z"/>
<path d="M1593 2115 c-192 -194 -222 -551 -50 -606 67 -21 103 -104 56 -130
-45 -23 -245 -30 -279 -9 -55 34 -5 597 71 795 23 59 -18 38 -68 -35 -67 -98
-106 -299 -113 -587 -7 -267 -15 -289 -118 -315 -53 -13 -57 -10 -48 36 9 48
8 49 -49 21 -85 -43 -68 -104 38 -135 75 -22 92 -20 180 23 63 30 133 47 201
47 60 0 161 21 239 49 l134 49 68 -60 c58 -51 79 -57 141 -47 260 45 506 173
480 251 -4 12 -87 57 -184 98 -247 106 -284 163 -205 313 74 142 332 274 402
205 31 -29 51 -21 51 22 0 139 -208 157 -356 30 -210 -180 -218 -561 -13 -654
120 -55 40 -110 -171 -117 -117 -5 -120 -3 -115 63 4 55 -3 65 -75 92 -178 67
-289 126 -309 164 -100 186 144 430 393 393 104 -16 117 22 33 100 -96 89
-208 71 -334 -56z"/>
<path d="M2991 1582 c-6 -9 4 -29 21 -43 30 -26 67 -1 68 46 0 21 -75 19 -89
-3z"/>
<path d="M444 1556 c-37 -37 -29 -56 26 -56 54 0 56 2 38 48 -15 38 -32 40
-64 8z"/>
<path d="M490 1354 c-189 -69 -193 -73 -168 -161 24 -88 88 -97 88 -13 0 57
55 77 102 38 33 -27 67 2 68 57 0 35 59 31 73 -5 30 -78 89 -16 68 70 -17 66
-78 70 -231 14z"/>
<path d="M2791 1356 c-90 -130 97 -301 287 -263 117 23 139 152 40 235 -83 71
-130 68 -145 -10 -16 -80 -1 -104 50 -76 47 25 91 -3 67 -42 -17 -28 -162 -11
-204 23 -36 30 -33 97 4 97 17 0 30 18 30 40 0 56 -88 53 -129 -4z"/>
<path d="M590 1083 c-173 -118 -210 -242 -39 -130 73 47 81 20 19 -61 -55 -72
-56 -132 -2 -132 16 0 35 9 42 20 7 12 55 43 106 70 108 56 184 117 184 147 0
39 -40 45 -84 14 -84 -58 -104 -23 -36 64 31 39 35 57 18 78 -35 41 -57 34
-208 -70z"/>
<path d="M2670 1100 c-7 -11 12 -42 42 -70 67 -63 53 -81 -40 -51 -80 27 -112
16 -112 -37 0 -37 265 -242 313 -242 40 0 33 49 -13 90 -60 54 -49 67 53 63
136 -5 128 29 -40 155 -151 114 -181 128 -203 92z"/>
<path d="M920 866 c-189 -69 -239 -366 -62 -366 126 0 214 105 138 164 -72 55
-101 47 -86 -26 13 -56 10 -61 -33 -55 -71 11 -67 66 13 145 80 81 106 88 124
37 24 -67 49 -87 79 -63 85 71 -58 206 -173 164z"/>
<path d="M2440 817 c0 -43 207 -297 242 -297 70 0 18 109 -127 269 -19 21 -35
46 -35 55 0 9 -18 16 -40 16 -28 0 -40 -13 -40 -43z"/>
<path d="M2250 727 c-33 -18 -64 -36 -69 -40 -5 -5 31 -89 80 -188 89 -180
141 -222 155 -125 6 38 16 43 65 33 74 -15 81 33 12 87 -28 22 -51 67 -59 114
-22 137 -79 174 -184 119z"/>
<path d="M1136 551 c-93 -187 -97 -211 -37 -211 30 0 181 278 181 333 0 100
-58 51 -144 -122z"/>
<path d="M2024 644 c-88 -9 -91 -24 -37 -234 48 -190 64 -207 165 -181 68 17
66 91 -2 91 -52 0 -73 64 -30 90 37 23 23 90 -19 90 -56 0 -69 34 -22 60 83
44 50 95 -55 84z"/>
<path d="M1371 615 c-97 -314 -103 -375 -42 -375 20 0 35 27 43 80 17 104 35
101 69 -14 52 -170 92 -133 149 140 28 137 19 194 -27 166 -11 -7 -26 -42 -34
-77 -27 -126 -64 -104 -68 40 -1 67 -72 98 -90 40z"/>
<path d="M1700 422 c0 -229 5 -242 102 -242 93 0 110 59 28 96 -27 13 -50 31
-50 40 0 10 23 28 50 40 28 13 50 33 50 44 0 12 -22 30 -50 40 -27 10 -50 28
-50 40 0 12 23 30 50 40 86 33 63 80 -40 80 l-90 0 0 -178z"/>
</g>
</svg>
